<?xml version="1.0" encoding="UTF-8" standalone="no"?>
<!-- Created with Inkscape (http://www.inkscape.org/) -->

<svg
   xmlns:dc="http://purl.org/dc/elements/1.1/"
   xmlns:cc="http://creativecommons.org/ns#"
   xmlns:rdf="http://www.w3.org/1999/02/22-rdf-syntax-ns#"
   xmlns:svg="http://www.w3.org/2000/svg"
   xmlns="http://www.w3.org/2000/svg"
   xmlns:xlink="http://www.w3.org/1999/xlink"
   xmlns:sodipodi="http://sodipodi.sourceforge.net/DTD/sodipodi-0.dtd"
   xmlns:inkscape="http://www.inkscape.org/namespaces/inkscape"
   width="24"
   height="24"
   id="svg2"
   sodipodi:version="0.32"
   inkscape:version="0.48.5 r10040"
   version="1.0"
   sodipodi:docname="menulibre.svg"
   inkscape:output_extension="org.inkscape.output.svg.inkscape">
  <defs
     id="defs4">
    <linearGradient
       id="linearGradient3104">
      <stop
         id="stop3106"
         offset="0"
         style="stop-color:#9c9c9c;stop-opacity:1;" />
      <stop
         id="stop3108"
         offset="1"
         style="stop-color:#afafaf;stop-opacity:1;" />
    </linearGradient>
    <linearGradient
       inkscape:collect="always"
       xlink:href="#linearGradient3104"
       id="linearGradient4222"
       x1="277.05368"
       y1="294.66794"
       x2="277.05368"
       y2="274.76862"
       gradientUnits="userSpaceOnUse" />
    <linearGradient
       inkscape:collect="always"
       id="linearGradient3600">
      <stop
         style="stop-color:#f4f4f4;stop-opacity:1"
         offset="0"
         id="stop3602" />
      <stop
         style="stop-color:#dbdbdb;stop-opacity:1"
         offset="1"
         id="stop3604" />
    </linearGradient>
    <linearGradient
       inkscape:collect="always"
       xlink:href="#linearGradient3600"
       id="linearGradient13159"
       gradientUnits="userSpaceOnUse"
       gradientTransform="matrix(0.4833064,0,0,0.7047228,267.69377,266.86625)"
       x1="27.066463"
       y1="11.286958"
       x2="27.066463"
       y2="40.240307" />
    <linearGradient
       id="linearGradient3690">
      <stop
         id="stop3692"
         offset="0"
         style="stop-color:white;stop-opacity:1;" />
      <stop
         id="stop3694"
         offset="1"
         style="stop-color:white;stop-opacity:0.46875" />
    </linearGradient>
    <linearGradient
       inkscape:collect="always"
       xlink:href="#linearGradient3690"
       id="linearGradient13153"
       gradientUnits="userSpaceOnUse"
       gradientTransform="matrix(0.4442812,0,0,0.6619597,268.57041,268.2284)"
       x1="9.5"
       y1="16.26436"
       x2="9.5"
       y2="13.408723" />
    <linearGradient
       id="linearGradient3524"
       inkscape:collect="always">
      <stop
         id="stop3526"
         offset="0"
         style="stop-color:#000000;stop-opacity:1;" />
      <stop
         id="stop3528"
         offset="1"
         style="stop-color:#000000;stop-opacity:0;" />
    </linearGradient>
    <linearGradient
       inkscape:collect="always"
       xlink:href="#linearGradient3524"
       id="linearGradient13148"
       gradientUnits="userSpaceOnUse"
       gradientTransform="matrix(0.4838676,0,0,0.488882,270.05824,268.66405)"
       x1="18.993803"
       y1="37.999992"
       x2="23.910248"
       y2="37.999992" />
    <linearGradient
       id="linearGradient3191-577">
      <stop
         id="stop2613"
         offset="0"
         style="stop-color:#dbce48;stop-opacity:1;" />
      <stop
         id="stop2615"
         offset="1"
         style="stop-color:#c5b625;stop-opacity:1;" />
    </linearGradient>
    <linearGradient
       inkscape:collect="always"
       xlink:href="#linearGradient3191-577"
       id="linearGradient3444"
       gradientUnits="userSpaceOnUse"
       gradientTransform="matrix(0.3763801,3.6152606e-2,3.669995e-2,0.374874,-2.2182805,-1.1331002)"
       x1="5.5178981"
       y1="37.371799"
       x2="9.5220556"
       y2="41.391716" />
    <linearGradient
       id="linearGradient3290-678">
      <stop
         id="stop2607"
         offset="0"
         style="stop-color:#ece5a5;stop-opacity:1;" />
      <stop
         id="stop2609"
         offset="1"
         style="stop-color:#fcfbf2;stop-opacity:1;" />
    </linearGradient>
    <linearGradient
       inkscape:collect="always"
       xlink:href="#linearGradient3290-678"
       id="linearGradient3442"
       gradientUnits="userSpaceOnUse"
       gradientTransform="matrix(0.4040235,-0.4056919,0.6073752,0.602268,-17.636692,0.462492)"
       x1="9"
       y1="29.056757"
       x2="9"
       y2="26.02973" />
    <linearGradient
       id="linearGradient3223-699">
      <stop
         id="stop2599"
         offset="0"
         style="stop-color:#b1b1b1;stop-opacity:1;" />
      <stop
         style="stop-color:#ffffff;stop-opacity:1;"
         offset="0.5"
         id="stop2601" />
      <stop
         id="stop2603"
         offset="1"
         style="stop-color:#8f8f8f;stop-opacity:1;" />
    </linearGradient>
    <linearGradient
       inkscape:collect="always"
       xlink:href="#linearGradient3223-699"
       id="linearGradient3440"
       gradientUnits="userSpaceOnUse"
       gradientTransform="matrix(0.4040235,-0.4056919,0.6073752,0.6022679,-17.177369,-2.1969969e-4)"
       x1="30.037716"
       y1="24.989594"
       x2="30.037716"
       y2="30.000141" />
    <linearGradient
       id="linearGradient3240-907">
      <stop
         style="stop-color:#565656;stop-opacity:1;"
         offset="0"
         id="stop2591" />
      <stop
         id="stop2593"
         offset="0.5"
         style="stop-color:#9a9a9a;stop-opacity:1;" />
      <stop
         style="stop-color:#545454;stop-opacity:1;"
         offset="1"
         id="stop2595" />
    </linearGradient>
    <linearGradient
       inkscape:collect="always"
       xlink:href="#linearGradient3240-907"
       id="linearGradient3438"
       gradientUnits="userSpaceOnUse"
       gradientTransform="matrix(0.4040235,-0.4056919,0.6073752,0.6022679,-17.061661,-0.1164056)"
       x1="30.037716"
       y1="24.989594"
       x2="30.037716"
       y2="30.000141" />
    <linearGradient
       id="linearGradient3223-768">
      <stop
         id="stop2583"
         offset="0"
         style="stop-color:#b1b1b1;stop-opacity:1;" />
      <stop
         style="stop-color:#ffffff;stop-opacity:1;"
         offset="0.5"
         id="stop2585" />
      <stop
         id="stop2587"
         offset="1"
         style="stop-color:#8f8f8f;stop-opacity:1;" />
    </linearGradient>
    <linearGradient
       inkscape:collect="always"
       xlink:href="#linearGradient3223-768"
       id="linearGradient3436"
       gradientUnits="userSpaceOnUse"
       gradientTransform="matrix(0.4040235,-0.4056919,0.6073752,0.6022679,-17.581392,0.4054707)"
       x1="30.037716"
       y1="24.989594"
       x2="30.037716"
       y2="30.000141" />
    <linearGradient
       id="linearGradient3240-686">
      <stop
         style="stop-color:#565656;stop-opacity:1;"
         offset="0"
         id="stop2575" />
      <stop
         id="stop2577"
         offset="0.5"
         style="stop-color:#9a9a9a;stop-opacity:1;" />
      <stop
         style="stop-color:#545454;stop-opacity:1;"
         offset="1"
         id="stop2579" />
    </linearGradient>
    <linearGradient
       inkscape:collect="always"
       xlink:href="#linearGradient3240-686"
       id="linearGradient3434"
       gradientUnits="userSpaceOnUse"
       gradientTransform="matrix(0.4040235,-0.4056919,0.6073752,0.6022679,-17.465684,0.2892868)"
       x1="30.037716"
       y1="24.989594"
       x2="30.037716"
       y2="30.000141" />
    <linearGradient
       id="linearGradient3223-789">
      <stop
         id="stop2567"
         offset="0"
         style="stop-color:#b1b1b1;stop-opacity:1;" />
      <stop
         style="stop-color:#ffffff;stop-opacity:1;"
         offset="0.5"
         id="stop2569" />
      <stop
         id="stop2571"
         offset="1"
         style="stop-color:#8f8f8f;stop-opacity:1;" />
    </linearGradient>
    <linearGradient
       inkscape:collect="always"
       xlink:href="#linearGradient3223-789"
       id="linearGradient3432"
       gradientUnits="userSpaceOnUse"
       gradientTransform="matrix(0.4040235,-0.4056919,0.6073752,0.6022679,-17.983472,0.8092126)"
       x1="30.037716"
       y1="24.989594"
       x2="30.037716"
       y2="30.000141" />
    <linearGradient
       id="linearGradient3240-279">
      <stop
         style="stop-color:#565656;stop-opacity:1;"
         offset="0"
         id="stop2559" />
      <stop
         id="stop2561"
         offset="0.5"
         style="stop-color:#9a9a9a;stop-opacity:1;" />
      <stop
         style="stop-color:#545454;stop-opacity:1;"
         offset="1"
         id="stop2563" />
    </linearGradient>
    <linearGradient
       inkscape:collect="always"
       xlink:href="#linearGradient3240-279"
       id="linearGradient3430"
       gradientUnits="userSpaceOnUse"
       gradientTransform="matrix(0.4040235,-0.4056919,0.6073752,0.6022679,-17.867764,0.6930272)"
       x1="30.037716"
       y1="24.989594"
       x2="30.037716"
       y2="30.000141" />
    <linearGradient
       id="linearGradient3155-40">
      <stop
         id="stop2541"
         offset="0"
         style="stop-color:#181818;stop-opacity:1;" />
      <stop
         style="stop-color:#dbdbdb;stop-opacity:1;"
         offset="0.13482948"
         id="stop2543" />
      <stop
         id="stop2545"
         offset="0.20224422"
         style="stop-color:#a4a4a4;stop-opacity:1;" />
      <stop
         style="stop-color:#ffffff;stop-opacity:1;"
         offset="0.26965895"
         id="stop2547" />
      <stop
         id="stop2549"
         offset="0.44650277"
         style="stop-color:#8d8d8d;stop-opacity:1;" />
      <stop
         style="stop-color:#959595;stop-opacity:1;"
         offset="0.57114136"
         id="stop2551" />
      <stop
         id="stop2553"
         offset="0.72038066"
         style="stop-color:#cecece;stop-opacity:1;" />
      <stop
         id="stop2555"
         offset="1"
         style="stop-color:#181818;stop-opacity:1;" />
    </linearGradient>
    <linearGradient
       inkscape:collect="always"
       xlink:href="#linearGradient3155-40"
       id="linearGradient3428"
       gradientUnits="userSpaceOnUse"
       gradientTransform="matrix(0.415777,-0.4174938,0.518983,0.5146192,-15.747227,2.6503673)"
       spreadMethod="pad"
       x1="23.575972"
       y1="25.356892"
       x2="23.575972"
       y2="31.210939" />
  </defs>
  <sodipodi:namedview
     id="base"
     pagecolor="#ffffff"
     bordercolor="#666666"
     borderopacity="1.0"
     gridtolerance="10000"
     guidetolerance="10"
     objecttolerance="10"
     inkscape:pageopacity="0.0"
     inkscape:pageshadow="2"
     inkscape:zoom="10.375"
     inkscape:cx="12"
     inkscape:cy="12"
     inkscape:document-units="px"
     inkscape:current-layer="layer1"
     showgrid="false"
     inkscape:window-width="1366"
     inkscape:window-height="703"
     inkscape:window-x="0"
     inkscape:window-y="0"
     inkscape:window-maximized="1" />
  <metadata
     id="metadata7">
    <rdf:RDF>
      <cc:Work
         rdf:about="">
        <dc:format>image/svg+xml</dc:format>
        <dc:type
           rdf:resource="http://purl.org/dc/dcmitype/StillImage" />
      </cc:Work>
    </rdf:RDF>
  </metadata>
  <g
     inkscape:label="Layer 1"
     inkscape:groupmode="layer"
     id="layer1">
    <g
       id="g3941"
       transform="matrix(0.02558473,0,0,0.02560439,29.241463,-1.1039072)">
      <path
         inkscape:connector-curvature="0"
         id="path3884"
         d="m -981.75903,868.17228 c -74.13027,-64.89654 -124.86587,-145.84026 -148.17287,-236.39554 -10.0281,-38.96237 -12.9944,-65.97883 -12.9944,-118.35189 0,-58.6976 3.09,-82.53011 17.2254,-132.85714 38.7143,-137.83664 153.2043,-260.64145 288.63959,-309.602069 56.62686,-20.47093 101.09911,-27.89976 166.73086,-27.85142 40.79788,0.03 52.91722,1.1852 90.04619,8.58268 83.93493,16.72299 150.73861,49.931219 218.52523,108.629279 l 10,8.65924 -288.64997,0.0769 c -311.21929,0.0829 -294.55985,-0.67291 -306.35003,13.89811 -2.81397,3.47767 -3.57143,79.13478 -3.57143,356.72484 0,193.77109 -0.96428,352.29709 -2.14285,352.28003 -1.17858,-0.0171 -14.35715,-10.72391 -29.28572,-23.79297 z"
         style="fill:#4d4d4d;fill-opacity:1;stroke:none" />
      <g
         transform="matrix(1.1080239,0,0,1,22.130508,0)"
         id="g3916">
        <path
           style="fill:#dfdcc6;fill-opacity:1;stroke:none"
           d="m -951.90561,219.68715 c 1.15498,-33.74399 5.05766,-44.14304 18.48202,-49.24697 4.28773,-1.63019 79.90653,-2.72961 187.74467,-2.72961 l 180.56524,0 41.35466,41.42857 41.35466,41.42857 -235.27911,0 -235.27911,0 1.05697,-30.88056 z m 62.43231,5.16628 c 7.08093,-7.08093 7.62154,-24.58542 0.98574,-31.91789 -11.65238,-12.87574 -38.1286,-1.90212 -38.1286,15.80321 0,18.7288 24.08102,29.17651 37.14286,16.11468 z m 59.67486,0.71428 c 15.63912,-12.98454 6.92088,-37.85714 -13.26952,-37.85714 -20.4362,0 -30.13124,19.43183 -17.62654,35.32897 7.08703,9.00971 21.65378,10.20168 30.89606,2.52817 z m 61.88358,-2.01298 c 8.57054,-8.57055 8.94667,-18.32955 1.09133,-28.31599 -8.36544,-10.63493 -25.50554,-10.63493 -33.87097,0 -7.8143,9.93426 -7.47855,18.52893 1.08477,27.76891 9.14899,9.87193 22.14568,10.09626 31.69487,0.54708 z"
           id="path3888"
           inkscape:connector-curvature="0" />
        <path
           style="fill:#e1dfca;fill-opacity:1;stroke:none"
           d="m -522.04473,209.13914 -41.35466,-41.42857 104.41209,0 104.41208,0 15.63032,16.42857 c 15.59269,16.38903 31.45704,35.42666 46.4276,55.71429 l 7.90623,10.71428 -98.0395,0 -98.03951,0 -41.35465,-41.42857 z"
           id="path3890"
           inkscape:connector-curvature="0" />
        <path
           style="fill:#000000;fill-opacity:1;stroke:none"
           d="m -745.75902,976.60623 c -30.75356,-4.58552 -78.30979,-16.709 -95.71429,-24.40037 -3.14285,-1.38889 -13.60431,-5.75206 -23.24768,-9.69595 -19.18855,-7.84762 -44.81246,-22.19528 -70.32374,-39.37657 l -16.42858,-11.06425 0,-319.89355 0,-319.89354 233.58237,0 233.58235,0 139.72089,139.74271 139.72088,139.7427 -1.79588,25.2573 c -4.75114,66.82018 -29.24909,141.85298 -65.15012,199.543 -15.38511,24.72266 -45.76814,61.9002 -72.47714,88.68512 -73.57643,73.78557 -167.08337,119.70417 -269.96554,132.57237 -31.79886,3.97731 -100.95277,3.33629 -131.50352,-1.21897 l 0,0 z m -59.00062,-501.26345 c 50.11002,-50.11003 50.12754,-44.63042 -0.3044,-95.20364 -29.44614,-29.52861 -37.85843,-36.42857 -44.41302,-36.42857 -13.69194,0 -19.1391,4.69044 -19.1391,16.48031 0,9.57464 2.7104,13.28464 28.91475,39.57847 l 28.91475,29.01349 -28.91475,28.73334 c -25.66445,25.50343 -28.91475,29.85712 -28.91475,38.73043 0,10.81288 7.86049,18.89253 18.38009,18.89253 3.49202,0 21.01015,-15.33009 45.47643,-39.79636 z m 204.50754,32.26819 c 7.07631,-8.99606 7.4406,-14.74606 1.47394,-23.26467 -4.38494,-6.26038 -5.41051,-6.35001 -72.65308,-6.35001 -75.83886,0 -77.18492,0.3246 -77.18492,18.6135 0,17.52176 4.21816,18.52935 77.57123,18.52935 l 64.87117,0 5.92166,-7.52817 0,0 z"
           id="path3896"
           inkscape:connector-curvature="0" />
        <path
           style="fill:#21211f;fill-opacity:1;stroke:none"
           d="M -348.39715,389.3578 -485.355,252.18405 l 100.61531,0.0711 100.6153,0.0711 10.48012,16.40857 c 24.17134,37.84473 47.37652,97.88737 56.49744,146.18517 5.76227,30.51279 11.39928,105.92797 8.15955,109.16311 -1.36324,1.36133 -63.26547,-58.46077 -139.40987,-134.72521 z"
           id="path3898"
           inkscape:connector-curvature="0" />
      </g>
      <text
         transform="scale(1.0215828,0.97887313)"
         sodipodi:linespacing="125%"
         id="text3912"
         y="756.61664"
         x="-999.42859"
         style="font-size:52.23737335px;font-style:normal;font-weight:normal;line-height:125%;letter-spacing:0px;word-spacing:0px;fill:#ffffff;fill-opacity:1;stroke:none;font-family:Sans"
         xml:space="preserve"><tspan
           style="font-size:195.89016724px;fill:#ffffff"
           y="756.61664"
           x="-999.42859"
           id="tspan3914"
           sodipodi:role="line">catalog</tspan></text>
    </g>
  </g>
</svg>
